<svg width="22" height="22" viewBox="0 0 22 22" fill="none" xmlns="http://www.w3.org/2000/svg">
<path fill-rule="evenodd" clip-rule="evenodd" d="M0 4.54697C0 2.03575 2.03575 0 4.54697 0H12.5042C15.0154 0 17.0511 2.03575 17.0511 4.54697V12.5042C17.0511 13.3967 16.794 14.2291 16.3498 14.9315C16.215 15.1445 16.2299 15.4261 16.4082 15.6044L21.6464 20.8426C21.8417 21.0379 21.8417 21.3545 21.6464 21.5498L21.5498 21.6464C21.3545 21.8417 21.0379 21.8417 20.8426 21.6464L15.6044 16.4082C15.4261 16.2299 15.1445 16.215 14.9315 16.3498C14.2291 16.794 13.3967 17.0511 12.5042 17.0511H4.54697C2.03575 17.0511 0 15.0154 0 12.5042V4.54697ZM4.54697 1.13674H12.5042C14.3876 1.13674 15.9144 2.66355 15.9144 4.54697V12.5042C15.9144 14.3876 14.3876 15.9144 12.5042 15.9144H4.54697C2.66355 15.9144 1.13674 14.3876 1.13674 12.5042V4.54697C1.13674 2.66355 2.66355 1.13674 4.54697 1.13674Z" fill="#02F84B"/>
</svg>
