<svg width="18" height="22" viewBox="0 0 18 22" fill="none" xmlns="http://www.w3.org/2000/svg">
<path fill-rule="evenodd" clip-rule="evenodd" d="M5 3C5 1.34315 6.34315 0 8 0H10C11.6569 0 13 1.34315 13 3V5C13 6.65685 11.6569 8 10 8H8C6.34315 8 5 6.65685 5 5V3ZM8 1H10C11.1046 1 12 1.89543 12 3V5C12 6.10457 11.1046 7 10 7H8C6.89543 7 6 6.10457 6 5V3C6 1.89543 6.89543 1 8 1Z" fill="#02F84B"/>
<path fill-rule="evenodd" clip-rule="evenodd" d="M0 18C0 14.2503 0 12.3754 0.954915 11.0611C1.26331 10.6366 1.6366 10.2633 2.06107 9.95492C3.3754 9 5.25027 9 9 9C12.7497 9 14.6246 9 15.9389 9.95492C16.3634 10.2633 16.7367 10.6366 17.0451 11.0611C18 12.3754 18 14.2503 18 18V22H0V18ZM17 18V21H1V18C1 16.1029 1.00137 14.7603 1.11355 13.725C1.22369 12.7083 1.43097 12.1071 1.76393 11.6489C2.01065 11.3093 2.30928 11.0107 2.64886 10.7639C3.10714 10.431 3.70833 10.2237 4.72497 10.1135C5.76033 10.0014 7.10286 10 9 10C10.8971 10 12.2397 10.0014 13.275 10.1135C14.2917 10.2237 14.8929 10.431 15.3511 10.7639C15.6907 11.0107 15.9893 11.3093 16.2361 11.6489C16.569 12.1071 16.7763 12.7083 16.8865 13.725C16.9986 14.7603 17 16.1029 17 18Z" fill="#02F84B"/>
</svg>
